<mxfile host="Electron" agent="Mozilla/5.0 (Macintosh; Intel Mac OS X 10_15_7) AppleWebKit/537.36 (KHTML, like Gecko) draw.io/24.7.17 Chrome/128.0.6613.36 Electron/32.0.1 Safari/537.36" version="24.7.17">
  <diagram id="C5RBs43oDa-KdzZeNtuy" name="Page-1">
    <mxGraphModel dx="370" dy="670" grid="1" gridSize="10" guides="1" tooltips="1" connect="1" arrows="1" fold="1" page="1" pageScale="1" pageWidth="1169" pageHeight="1654" math="0" shadow="0">
      <root>
        <mxCell id="WIyWlLk6GJQsqaUBKTNV-0" />
        <mxCell id="WIyWlLk6GJQsqaUBKTNV-1" parent="WIyWlLk6GJQsqaUBKTNV-0" />
        <mxCell id="pEWXfIRVOJryzQGO15K1-5" style="edgeStyle=orthogonalEdgeStyle;rounded=0;orthogonalLoop=1;jettySize=auto;html=1;exitX=0.5;exitY=1;exitDx=0;exitDy=0;entryX=0.5;entryY=0;entryDx=0;entryDy=0;" parent="WIyWlLk6GJQsqaUBKTNV-1" source="pEWXfIRVOJryzQGO15K1-0" target="pEWXfIRVOJryzQGO15K1-1" edge="1">
          <mxGeometry relative="1" as="geometry" />
        </mxCell>
        <mxCell id="pEWXfIRVOJryzQGO15K1-0" value="Start" style="ellipse;whiteSpace=wrap;html=1;" parent="WIyWlLk6GJQsqaUBKTNV-1" vertex="1">
          <mxGeometry x="520" y="227" width="120" height="80" as="geometry" />
        </mxCell>
        <mxCell id="wpcD75f48upSr0hSdxwY-1" style="edgeStyle=orthogonalEdgeStyle;rounded=0;orthogonalLoop=1;jettySize=auto;html=1;exitX=0.5;exitY=1;exitDx=0;exitDy=0;entryX=0.5;entryY=0;entryDx=0;entryDy=0;" edge="1" parent="WIyWlLk6GJQsqaUBKTNV-1" source="pEWXfIRVOJryzQGO15K1-1" target="wpcD75f48upSr0hSdxwY-0">
          <mxGeometry relative="1" as="geometry" />
        </mxCell>
        <mxCell id="pEWXfIRVOJryzQGO15K1-1" value="Druk op de knop" style="shape=parallelogram;perimeter=parallelogramPerimeter;whiteSpace=wrap;html=1;fixedSize=1;" parent="WIyWlLk6GJQsqaUBKTNV-1" vertex="1">
          <mxGeometry x="520" y="357" width="120" height="60" as="geometry" />
        </mxCell>
        <mxCell id="pEWXfIRVOJryzQGO15K1-4" style="edgeStyle=orthogonalEdgeStyle;rounded=0;orthogonalLoop=1;jettySize=auto;html=1;exitX=0.5;exitY=1;exitDx=0;exitDy=0;entryX=0.5;entryY=0;entryDx=0;entryDy=0;" parent="WIyWlLk6GJQsqaUBKTNV-1" source="pEWXfIRVOJryzQGO15K1-2" target="pEWXfIRVOJryzQGO15K1-3" edge="1">
          <mxGeometry relative="1" as="geometry" />
        </mxCell>
        <mxCell id="pEWXfIRVOJryzQGO15K1-2" value="Fetch data" style="rounded=0;whiteSpace=wrap;html=1;" parent="WIyWlLk6GJQsqaUBKTNV-1" vertex="1">
          <mxGeometry x="520" y="727" width="120" height="60" as="geometry" />
        </mxCell>
        <mxCell id="pEWXfIRVOJryzQGO15K1-7" style="edgeStyle=orthogonalEdgeStyle;rounded=0;orthogonalLoop=1;jettySize=auto;html=1;exitX=0.5;exitY=1;exitDx=0;exitDy=0;entryX=0.5;entryY=0;entryDx=0;entryDy=0;" parent="WIyWlLk6GJQsqaUBKTNV-1" source="pEWXfIRVOJryzQGO15K1-3" target="pEWXfIRVOJryzQGO15K1-6" edge="1">
          <mxGeometry relative="1" as="geometry" />
        </mxCell>
        <mxCell id="pEWXfIRVOJryzQGO15K1-16" style="edgeStyle=orthogonalEdgeStyle;rounded=0;orthogonalLoop=1;jettySize=auto;html=1;exitX=1;exitY=0.5;exitDx=0;exitDy=0;entryX=1;entryY=0.5;entryDx=0;entryDy=0;" parent="WIyWlLk6GJQsqaUBKTNV-1" source="pEWXfIRVOJryzQGO15K1-3" target="pEWXfIRVOJryzQGO15K1-14" edge="1">
          <mxGeometry relative="1" as="geometry">
            <Array as="points">
              <mxPoint x="719" y="902" />
              <mxPoint x="719" y="1267" />
            </Array>
          </mxGeometry>
        </mxCell>
        <mxCell id="pEWXfIRVOJryzQGO15K1-3" value="Data over?" style="rhombus;whiteSpace=wrap;html=1;" parent="WIyWlLk6GJQsqaUBKTNV-1" vertex="1">
          <mxGeometry x="525" y="847" width="110" height="110" as="geometry" />
        </mxCell>
        <mxCell id="pEWXfIRVOJryzQGO15K1-10" style="edgeStyle=orthogonalEdgeStyle;rounded=0;orthogonalLoop=1;jettySize=auto;html=1;exitX=0.5;exitY=1;exitDx=0;exitDy=0;entryX=0.5;entryY=0;entryDx=0;entryDy=0;" parent="WIyWlLk6GJQsqaUBKTNV-1" source="pEWXfIRVOJryzQGO15K1-6" target="pEWXfIRVOJryzQGO15K1-9" edge="1">
          <mxGeometry relative="1" as="geometry" />
        </mxCell>
        <mxCell id="pEWXfIRVOJryzQGO15K1-6" value="listitem + value" style="rounded=0;whiteSpace=wrap;html=1;" parent="WIyWlLk6GJQsqaUBKTNV-1" vertex="1">
          <mxGeometry x="519" y="1017" width="120" height="60" as="geometry" />
        </mxCell>
        <mxCell id="pEWXfIRVOJryzQGO15K1-8" value="Ja" style="rounded=0;whiteSpace=wrap;html=1;" parent="WIyWlLk6GJQsqaUBKTNV-1" vertex="1">
          <mxGeometry x="560" y="975" width="40" height="20" as="geometry" />
        </mxCell>
        <mxCell id="pEWXfIRVOJryzQGO15K1-11" style="edgeStyle=orthogonalEdgeStyle;rounded=0;orthogonalLoop=1;jettySize=auto;html=1;exitX=0;exitY=0.5;exitDx=0;exitDy=0;entryX=0;entryY=0.5;entryDx=0;entryDy=0;" parent="WIyWlLk6GJQsqaUBKTNV-1" source="pEWXfIRVOJryzQGO15K1-9" target="pEWXfIRVOJryzQGO15K1-3" edge="1">
          <mxGeometry relative="1" as="geometry">
            <mxPoint x="499" y="757" as="targetPoint" />
            <Array as="points">
              <mxPoint x="529" y="1167" />
              <mxPoint x="449" y="1167" />
              <mxPoint x="449" y="902" />
            </Array>
          </mxGeometry>
        </mxCell>
        <mxCell id="pEWXfIRVOJryzQGO15K1-9" value="listitem -&amp;gt; ul" style="shape=parallelogram;perimeter=parallelogramPerimeter;whiteSpace=wrap;html=1;fixedSize=1;" parent="WIyWlLk6GJQsqaUBKTNV-1" vertex="1">
          <mxGeometry x="519" y="1127" width="120" height="60" as="geometry" />
        </mxCell>
        <mxCell id="wpcD75f48upSr0hSdxwY-12" style="edgeStyle=orthogonalEdgeStyle;rounded=0;orthogonalLoop=1;jettySize=auto;html=1;exitX=0.5;exitY=1;exitDx=0;exitDy=0;entryX=0.5;entryY=0;entryDx=0;entryDy=0;" edge="1" parent="WIyWlLk6GJQsqaUBKTNV-1" source="pEWXfIRVOJryzQGO15K1-14" target="wpcD75f48upSr0hSdxwY-11">
          <mxGeometry relative="1" as="geometry" />
        </mxCell>
        <mxCell id="pEWXfIRVOJryzQGO15K1-14" value=".loading remove" style="rounded=0;whiteSpace=wrap;html=1;" parent="WIyWlLk6GJQsqaUBKTNV-1" vertex="1">
          <mxGeometry x="520" y="1237" width="120" height="60" as="geometry" />
        </mxCell>
        <mxCell id="pEWXfIRVOJryzQGO15K1-17" value="Nee" style="rounded=0;whiteSpace=wrap;html=1;" parent="WIyWlLk6GJQsqaUBKTNV-1" vertex="1">
          <mxGeometry x="699" y="975" width="40" height="20" as="geometry" />
        </mxCell>
        <mxCell id="wpcD75f48upSr0hSdxwY-3" style="edgeStyle=orthogonalEdgeStyle;rounded=0;orthogonalLoop=1;jettySize=auto;html=1;exitX=0.5;exitY=1;exitDx=0;exitDy=0;entryX=0.5;entryY=0;entryDx=0;entryDy=0;" edge="1" parent="WIyWlLk6GJQsqaUBKTNV-1" source="wpcD75f48upSr0hSdxwY-0" target="wpcD75f48upSr0hSdxwY-2">
          <mxGeometry relative="1" as="geometry" />
        </mxCell>
        <mxCell id="wpcD75f48upSr0hSdxwY-0" value="DOM elementen&amp;nbsp;&lt;div&gt;selecteren&lt;/div&gt;" style="rounded=0;whiteSpace=wrap;html=1;" vertex="1" parent="WIyWlLk6GJQsqaUBKTNV-1">
          <mxGeometry x="520" y="477" width="120" height="60" as="geometry" />
        </mxCell>
        <mxCell id="wpcD75f48upSr0hSdxwY-4" style="edgeStyle=orthogonalEdgeStyle;rounded=0;orthogonalLoop=1;jettySize=auto;html=1;exitX=0.5;exitY=1;exitDx=0;exitDy=0;entryX=0.5;entryY=0;entryDx=0;entryDy=0;" edge="1" parent="WIyWlLk6GJQsqaUBKTNV-1" source="wpcD75f48upSr0hSdxwY-2" target="pEWXfIRVOJryzQGO15K1-2">
          <mxGeometry relative="1" as="geometry" />
        </mxCell>
        <mxCell id="wpcD75f48upSr0hSdxwY-2" value=".loading -&amp;gt; main" style="rounded=0;whiteSpace=wrap;html=1;" vertex="1" parent="WIyWlLk6GJQsqaUBKTNV-1">
          <mxGeometry x="520" y="597" width="120" height="60" as="geometry" />
        </mxCell>
        <mxCell id="wpcD75f48upSr0hSdxwY-7" value="main" style="text;html=1;align=center;verticalAlign=middle;resizable=0;points=[];autosize=1;strokeColor=none;fillColor=none;" vertex="1" parent="WIyWlLk6GJQsqaUBKTNV-1">
          <mxGeometry x="439" y="455" width="50" height="30" as="geometry" />
        </mxCell>
        <mxCell id="wpcD75f48upSr0hSdxwY-8" value="ul" style="text;html=1;align=center;verticalAlign=middle;resizable=0;points=[];autosize=1;strokeColor=none;fillColor=none;" vertex="1" parent="WIyWlLk6GJQsqaUBKTNV-1">
          <mxGeometry x="450" y="530" width="30" height="30" as="geometry" />
        </mxCell>
        <mxCell id="wpcD75f48upSr0hSdxwY-9" value="For of" style="rounded=0;whiteSpace=wrap;html=1;" vertex="1" parent="WIyWlLk6GJQsqaUBKTNV-1">
          <mxGeometry x="429" y="975" width="40" height="20" as="geometry" />
        </mxCell>
        <mxCell id="wpcD75f48upSr0hSdxwY-11" value="Einde" style="ellipse;whiteSpace=wrap;html=1;" vertex="1" parent="WIyWlLk6GJQsqaUBKTNV-1">
          <mxGeometry x="520" y="1347" width="120" height="80" as="geometry" />
        </mxCell>
        <mxCell id="wpcD75f48upSr0hSdxwY-14" value="" style="endArrow=classic;html=1;rounded=0;" edge="1" parent="WIyWlLk6GJQsqaUBKTNV-1">
          <mxGeometry width="50" height="50" relative="1" as="geometry">
            <mxPoint x="519" y="507" as="sourcePoint" />
            <mxPoint x="479" y="537" as="targetPoint" />
          </mxGeometry>
        </mxCell>
        <mxCell id="wpcD75f48upSr0hSdxwY-15" value="" style="endArrow=classic;html=1;rounded=0;" edge="1" parent="WIyWlLk6GJQsqaUBKTNV-1">
          <mxGeometry width="50" height="50" relative="1" as="geometry">
            <mxPoint x="519.0047368421053" y="504" as="sourcePoint" />
            <mxPoint x="480" y="480" as="targetPoint" />
          </mxGeometry>
        </mxCell>
      </root>
    </mxGraphModel>
  </diagram>
</mxfile>
